{
  "asset": {
    "version": "2.0",
    "generator": "bag-001 procedural gltf builder"
  },
  "scene": 0,
  "scenes": [
    {
      "nodes": [
        24
      ]
    }
  ],
  "nodes": [
    {
      "name": "Body_FlapOuterMesh",
      "mesh": 2
    },
    {
      "name": "Lining_FlapMesh",
      "mesh": 3
    },
    {
      "name": "hs_flap",
      "translation": [
        0.0,
        -0.035,
        0.085
      ]
    },
    {
      "name": "Body_Flap",
      "children": [
        0,
        1,
        2
      ],
      "translation": [
        0.0,
        0.20999999344348907,
        -0.0585494302213192
      ]
    },
    {
      "name": "Body_ShellMesh",
      "mesh": 0
    },
    {
      "name": "slot_body",
      "children": [
        4,
        3
      ]
    },
    {
      "name": "Handle_Mesh",
      "mesh": 4
    },
    {
      "name": "slot_handle",
      "children": [
        6
      ]
    },
    {
      "name": "Hardware_Mesh",
      "mesh": 5
    },
    {
      "name": "slot_hardware",
      "children": [
        8
      ]
    },
    {
      "name": "Lining_Mesh",
      "mesh": 1
    },
    {
      "name": "slot_lining",
      "children": [
        10
      ]
    },
    {
      "name": "slot_personalization",
      "translation": [
        0.0,
        0.15,
        0.0605494302213192
      ]
    },
    {
      "name": "focus_body",
      "translation": [
        0.0,
        0.16,
        0.03
      ]
    },
    {
      "name": "focus_handle",
      "translation": [
        0.0,
        0.27,
        -0.02
      ]
    },
    {
      "name": "focus_hardware",
      "translation": [
        0.0,
        0.15,
        0.0635494302213192
      ]
    },
    {
      "name": "focus_lining",
      "translation": [
        0.0,
        0.18,
        0.0
      ]
    },
    {
      "name": "focus_personalization",
      "translation": [
        0.0,
        0.15,
        0.0685494302213192
      ]
    },
    {
      "name": "focus_flap",
      "translation": [
        0.0,
        0.18999999344348908,
        0.0014505697786807992
      ]
    },
    {
      "name": "hs_body",
      "translation": [
        0.0,
        0.18,
        0.04
      ]
    },
    {
      "name": "hs_handle",
      "translation": [
        0.0,
        0.28,
        -0.02
      ]
    },
    {
      "name": "hs_hardware",
      "translation": [
        0.0,
        0.15,
        0.0685494302213192
      ]
    },
    {
      "name": "hs_lining",
      "translation": [
        0.0,
        0.18,
        0.0
      ]
    },
    {
      "name": "hs_monogram",
      "translation": [
        0.0,
        0.15,
        0.0685494302213192
      ]
    },
    {
      "name": "bag_root",
      "children": [
        5,
        7,
        9,
        11,
        12,
        13,
        14,
        15,
        16,
        17,
        18,
        19,
        20,
        21,
        22,
        23
      ]
    }
  ],
  "meshes": [
    {
      "name": "Body_Shell",
      "primitives": [
        {
          "attributes": {
            "POSITION": 0,
            "NORMAL": 1,
            "TEXCOORD_0": 2
          },
          "mode": 4,
          "indices": 3,
          "material": 0
        }
      ]
    },
    {
      "name": "Lining_Body",
      "primitives": [
        {
          "attributes": {
            "POSITION": 4,
            "NORMAL": 5,
            "TEXCOORD_0": 6
          },
          "mode": 4,
          "indices": 7,
          "material": 5
        }
      ]
    },
    {
      "name": "Body_FlapOuter",
      "primitives": [
        {
          "attributes": {
            "POSITION": 8,
            "NORMAL": 9,
            "TEXCOORD_0": 10
          },
          "mode": 4,
          "indices": 11,
          "material": 0
        }
      ]
    },
    {
      "name": "Lining_Flap",
      "primitives": [
        {
          "attributes": {
            "POSITION": 12,
            "NORMAL": 13,
            "TEXCOORD_0": 14
          },
          "mode": 4,
          "indices": 15,
          "material": 5
        }
      ]
    },
    {
      "name": "Handle_Main",
      "primitives": [
        {
          "attributes": {
            "POSITION": 16,
            "NORMAL": 17,
            "TEXCOORD_0": 18
          },
          "mode": 4,
          "indices": 19,
          "material": 4
        }
      ]
    },
    {
      "name": "Hardware_All",
      "primitives": [
        {
          "attributes": {
            "POSITION": 20,
            "NORMAL": 21,
            "TEXCOORD_0": 22
          },
          "mode": 4,
          "indices": 23,
          "material": 6
        }
      ]
    }
  ],
  "materials": [
    {
      "name": "Mat_Body_Leather",
      "pbrMetallicRoughness": {
        "baseColorFactor": [
          0.7607843137254902,
          0.6039215686274509,
          0.4196078431372549,
          1.0
        ],
        "metallicFactor": 0.0,
        "roughnessFactor": 1.0,
        "baseColorTexture": {
          "index": 0
        },
        "metallicRoughnessTexture": {
          "index": 2
        }
      },
      "doubleSided": false,
      "normalTexture": {
        "index": 1
      },
      "occlusionTexture": {
        "index": 2
      }
    },
    {
      "name": "Mat_Body_PatternA",
      "pbrMetallicRoughness": {
        "baseColorFactor": [
          0.7607843137254902,
          0.6039215686274509,
          0.4196078431372549,
          1.0
        ],
        "metallicFactor": 0.0,
        "roughnessFactor": 1.0,
        "baseColorTexture": {
          "index": 3
        },
        "metallicRoughnessTexture": {
          "index": 2
        }
      },
      "doubleSided": false,
      "normalTexture": {
        "index": 1
      },
      "occlusionTexture": {
        "index": 2
      }
    },
    {
      "name": "Mat_Body_PatternB",
      "pbrMetallicRoughness": {
        "baseColorFactor": [
          0.7607843137254902,
          0.6039215686274509,
          0.4196078431372549,
          1.0
        ],
        "metallicFactor": 0.0,
        "roughnessFactor": 1.0,
        "baseColorTexture": {
          "index": 4
        },
        "metallicRoughnessTexture": {
          "index": 2
        }
      },
      "doubleSided": false,
      "normalTexture": {
        "index": 1
      },
      "occlusionTexture": {
        "index": 2
      }
    },
    {
      "name": "Mat_Body_PatternC",
      "pbrMetallicRoughness": {
        "baseColorFactor": [
          0.7607843137254902,
          0.6039215686274509,
          0.4196078431372549,
          1.0
        ],
        "metallicFactor": 0.0,
        "roughnessFactor": 1.0,
        "baseColorTexture": {
          "index": 5
        },
        "metallicRoughnessTexture": {
          "index": 2
        }
      },
      "doubleSided": false,
      "normalTexture": {
        "index": 1
      },
      "occlusionTexture": {
        "index": 2
      }
    },
    {
      "name": "Mat_Handle_Leather",
      "pbrMetallicRoughness": {
        "baseColorFactor": [
          0.7607843137254902,
          0.6039215686274509,
          0.4196078431372549,
          1.0
        ],
        "metallicFactor": 0.0,
        "roughnessFactor": 1.0,
        "baseColorTexture": {
          "index": 0
        },
        "metallicRoughnessTexture": {
          "index": 2
        }
      },
      "doubleSided": false,
      "normalTexture": {
        "index": 1
      },
      "occlusionTexture": {
        "index": 2
      }
    },
    {
      "name": "Mat_Lining_Cloth",
      "pbrMetallicRoughness": {
        "baseColorFactor": [
          0.9098039215686274,
          0.8666666666666667,
          0.788235294117647,
          1.0
        ],
        "metallicFactor": 0.0,
        "roughnessFactor": 1.0,
        "baseColorTexture": {
          "index": 6
        },
        "metallicRoughnessTexture": {
          "index": 8
        }
      },
      "doubleSided": false,
      "normalTexture": {
        "index": 7
      },
      "occlusionTexture": {
        "index": 8
      }
    },
    {
      "name": "Mat_Hardware_Gold",
      "pbrMetallicRoughness": {
        "baseColorFactor": [
          0.8313725490196079,
          0.6862745098039216,
          0.21568627450980393,
          1.0
        ],
        "metallicFactor": 1.0,
        "roughnessFactor": 0.25
      },
      "doubleSided": false
    },
    {
      "name": "Mat_Hardware_Silver",
      "pbrMetallicRoughness": {
        "baseColorFactor": [
          0.8509803921568627,
          0.8509803921568627,
          0.8392156862745098,
          1.0
        ],
        "metallicFactor": 1.0,
        "roughnessFactor": 0.2
      },
      "doubleSided": false
    },
    {
      "name": "Mat_Hardware_Gunmetal",
      "pbrMetallicRoughness": {
        "baseColorFactor": [
          0.16862745098039217,
          0.16862745098039217,
          0.1803921568627451,
          1.0
        ],
        "metallicFactor": 1.0,
        "roughnessFactor": 0.35
      },
      "doubleSided": false
    },
    {
      "name": "Mat_Monogram_Leather",
      "pbrMetallicRoughness": {
        "baseColorFactor": [
          0.7607843137254902,
          0.6039215686274509,
          0.4196078431372549,
          1.0
        ],
        "metallicFactor": 0.0,
        "roughnessFactor": 1.0,
        "baseColorTexture": {
          "index": 0
        },
        "metallicRoughnessTexture": {
          "index": 2
        }
      },
      "doubleSided": false,
      "normalTexture": {
        "index": 1
      },
      "occlusionTexture": {
        "index": 2
      }
    }
  ],
  "accessors": [
    {
      "bufferView": 0,
      "byteOffset": 0,
      "componentType": 5126,
      "count": 3577,
      "type": "VEC3",
      "min": [
        -0.1561318188905716,
        0.0,
        -0.0585494302213192
      ],
      "max": [
        0.1561318188905716,
        0.21000000834465027,
        0.0585494302213192
      ]
    },
    {
      "bufferView": 1,
      "byteOffset": 0,
      "componentType": 5126,
      "count": 3577,
      "type": "VEC3"
    },
    {
      "bufferView": 2,
      "byteOffset": 0,
      "componentType": 5126,
      "count": 3577,
      "type": "VEC2"
    },
    {
      "bufferView": 3,
      "byteOffset": 0,
      "componentType": 5123,
      "count": 20736,
      "type": "SCALAR"
    },
    {
      "bufferView": 4,
      "byteOffset": 0,
      "componentType": 5126,
      "count": 3577,
      "type": "VEC3",
      "min": [
        -0.1482510268688202,
        0.007999993860721588,
        -0.05071745440363884
      ],
      "max": [
        0.1482510268688202,
        0.19999998807907104,
        0.05071745440363884
      ]
    },
    {
      "bufferView": 5,
      "byteOffset": 0,
      "componentType": 5126,
      "count": 3577,
      "type": "VEC3"
    },
    {
      "bufferView": 6,
      "byteOffset": 0,
      "componentType": 5126,
      "count": 3577,
      "type": "VEC2"
    },
    {
      "bufferView": 7,
      "byteOffset": 0,
      "componentType": 5123,
      "count": 20736,
      "type": "SCALAR"
    },
    {
      "bufferView": 8,
      "byteOffset": 0,
      "componentType": 5126,
      "count": 1575,
      "type": "VEC3",
      "min": [
        -0.14499999582767487,
        -0.08100000023841858,
        0.0
      ],
      "max": [
        0.14499999582767487,
        -0.0,
        0.11999999731779099
      ]
    },
    {
      "bufferView": 9,
      "byteOffset": 0,
      "componentType": 5126,
      "count": 1575,
      "type": "VEC3"
    },
    {
      "bufferView": 10,
      "byteOffset": 0,
      "componentType": 5126,
      "count": 1575,
      "type": "VEC2"
    },
    {
      "bufferView": 11,
      "byteOffset": 0,
      "componentType": 5123,
      "count": 8976,
      "type": "SCALAR"
    },
    {
      "bufferView": 12,
      "byteOffset": 0,
      "componentType": 5126,
      "count": 1575,
      "type": "VEC3",
      "min": [
        -0.14516077935695648,
        -0.08242049068212509,
        -0.00015024267486296594
      ],
      "max": [
        0.14516077935695648,
        -0.0019878942985087633,
        0.11859440803527832
      ]
    },
    {
      "bufferView": 13,
      "byteOffset": 0,
      "componentType": 5126,
      "count": 1575,
      "type": "VEC3"
    },
    {
      "bufferView": 14,
      "byteOffset": 0,
      "componentType": 5126,
      "count": 1575,
      "type": "VEC2"
    },
    {
      "bufferView": 15,
      "byteOffset": 0,
      "componentType": 5123,
      "count": 8976,
      "type": "SCALAR"
    },
    {
      "bufferView": 16,
      "byteOffset": 0,
      "componentType": 5126,
      "count": 512,
      "type": "VEC3",
      "min": [
        -0.1351611614227295,
        0.2138875275850296,
        -0.02800000086426735
      ],
      "max": [
        0.1351611614227295,
        0.2979028522968292,
        -0.011999999172985554
      ]
    },
    {
      "bufferView": 17,
      "byteOffset": 0,
      "componentType": 5126,
      "count": 512,
      "type": "VEC3"
    },
    {
      "bufferView": 18,
      "byteOffset": 0,
      "componentType": 5126,
      "count": 512,
      "type": "VEC2"
    },
    {
      "bufferView": 19,
      "byteOffset": 0,
      "componentType": 5123,
      "count": 2976,
      "type": "SCALAR"
    },
    {
      "bufferView": 20,
      "byteOffset": 0,
      "componentType": 5126,
      "count": 1322,
      "type": "VEC3",
      "min": [
        -0.13300000131130219,
        0.13899999856948853,
        -0.03799999877810478
      ],
      "max": [
        0.13300000131130219,
        0.2280000001192093,
        0.06754942983388901
      ]
    },
    {
      "bufferView": 21,
      "byteOffset": 0,
      "componentType": 5126,
      "count": 1322,
      "type": "VEC3"
    },
    {
      "bufferView": 22,
      "byteOffset": 0,
      "componentType": 5126,
      "count": 1322,
      "type": "VEC2"
    },
    {
      "bufferView": 23,
      "byteOffset": 0,
      "componentType": 5123,
      "count": 7908,
      "type": "SCALAR"
    }
  ],
  "bufferViews": [
    {
      "buffer": 0,
      "byteOffset": 0,
      "byteLength": 42924,
      "target": 34962
    },
    {
      "buffer": 0,
      "byteOffset": 42924,
      "byteLength": 42924,
      "target": 34962
    },
    {
      "buffer": 0,
      "byteOffset": 85848,
      "byteLength": 28616,
      "target": 34962
    },
    {
      "buffer": 0,
      "byteOffset": 114464,
      "byteLength": 41472,
      "target": 34963
    },
    {
      "buffer": 0,
      "byteOffset": 155936,
      "byteLength": 42924,
      "target": 34962
    },
    {
      "buffer": 0,
      "byteOffset": 198860,
      "byteLength": 42924,
      "target": 34962
    },
    {
      "buffer": 0,
      "byteOffset": 241784,
      "byteLength": 28616,
      "target": 34962
    },
    {
      "buffer": 0,
      "byteOffset": 270400,
      "byteLength": 41472,
      "target": 34963
    },
    {
      "buffer": 0,
      "byteOffset": 311872,
      "byteLength": 18900,
      "target": 34962
    },
    {
      "buffer": 0,
      "byteOffset": 330772,
      "byteLength": 18900,
      "target": 34962
    },
    {
      "buffer": 0,
      "byteOffset": 349672,
      "byteLength": 12600,
      "target": 34962
    },
    {
      "buffer": 0,
      "byteOffset": 362272,
      "byteLength": 17952,
      "target": 34963
    },
    {
      "buffer": 0,
      "byteOffset": 380224,
      "byteLength": 18900,
      "target": 34962
    },
    {
      "buffer": 0,
      "byteOffset": 399124,
      "byteLength": 18900,
      "target": 34962
    },
    {
      "buffer": 0,
      "byteOffset": 418024,
      "byteLength": 12600,
      "target": 34962
    },
    {
      "buffer": 0,
      "byteOffset": 430624,
      "byteLength": 17952,
      "target": 34963
    },
    {
      "buffer": 0,
      "byteOffset": 448576,
      "byteLength": 6144,
      "target": 34962
    },
    {
      "buffer": 0,
      "byteOffset": 454720,
      "byteLength": 6144,
      "target": 34962
    },
    {
      "buffer": 0,
      "byteOffset": 460864,
      "byteLength": 4096,
      "target": 34962
    },
    {
      "buffer": 0,
      "byteOffset": 464960,
      "byteLength": 5952,
      "target": 34963
    },
    {
      "buffer": 0,
      "byteOffset": 470912,
      "byteLength": 15864,
      "target": 34962
    },
    {
      "buffer": 0,
      "byteOffset": 486776,
      "byteLength": 15864,
      "target": 34962
    },
    {
      "buffer": 0,
      "byteOffset": 502640,
      "byteLength": 10576,
      "target": 34962
    },
    {
      "buffer": 0,
      "byteOffset": 513216,
      "byteLength": 15816,
      "target": 34963
    }
  ],
  "buffers": [
    {
      "uri": "desktop.bin",
      "byteLength": 529032
    }
  ],
  "samplers": [
    {
      "magFilter": 9729,
      "minFilter": 9987,
      "wrapS": 10497,
      "wrapT": 10497
    }
  ],
  "images": [
    {
      "uri": "leather_basecolor.png"
    },
    {
      "uri": "leather_normal.png"
    },
    {
      "uri": "leather_orm.png"
    },
    {
      "uri": "pattern_a_basecolor.png"
    },
    {
      "uri": "pattern_b_basecolor.png"
    },
    {
      "uri": "pattern_c_basecolor.png"
    },
    {
      "uri": "lining_basecolor.png"
    },
    {
      "uri": "lining_normal.png"
    },
    {
      "uri": "lining_orm.png"
    }
  ],
  "textures": [
    {
      "source": 0,
      "sampler": 0
    },
    {
      "source": 1,
      "sampler": 0
    },
    {
      "source": 2,
      "sampler": 0
    },
    {
      "source": 3,
      "sampler": 0
    },
    {
      "source": 4,
      "sampler": 0
    },
    {
      "source": 5,
      "sampler": 0
    },
    {
      "source": 6,
      "sampler": 0
    },
    {
      "source": 7,
      "sampler": 0
    },
    {
      "source": 8,
      "sampler": 0
    }
  ]
}