<svg xmlns="http://www.w3.org/2000/svg" width="600" height="360" viewBox="0 0 600 360" fill="none">
  <rect width="600" height="360" rx="16" fill="#F7F5F2"/>
  <rect x="24" y="24" width="552" height="56" rx="12" fill="#FFFFFF" stroke="#E5DFD5" stroke-width="2"/>
  <rect x="44" y="40" width="120" height="24" rx="8" fill="#EFE8DB"/>
  <rect x="184" y="40" width="80" height="24" rx="8" fill="#E6F0FF"/>
  <rect x="280" y="40" width="80" height="24" rx="8" fill="#E6F0FF"/>
  <rect x="376" y="40" width="80" height="24" rx="8" fill="#E6F0FF"/>
  <rect x="472" y="40" width="80" height="24" rx="8" fill="#E6F0FF"/>
  <rect x="24" y="96" width="552" height="240" rx="12" fill="#FFFFFF" stroke="#E5DFD5" stroke-width="2"/>
  <rect x="44" y="116" width="120" height="200" rx="10" fill="#F1EAE0"/>
  <rect x="184" y="116" width="116" height="92" rx="10" fill="#EFE8DB"/>
  <rect x="184" y="224" width="116" height="92" rx="10" fill="#EFE8DB"/>
  <rect x="320" y="116" width="116" height="92" rx="10" fill="#EFE8DB"/>
  <rect x="320" y="224" width="116" height="92" rx="10" fill="#EFE8DB"/>
  <rect x="456" y="116" width="116" height="92" rx="10" fill="#EFE8DB"/>
  <rect x="456" y="224" width="116" height="92" rx="10" fill="#EFE8DB"/>
</svg>
