<svg xmlns="http://www.w3.org/2000/svg" width="600" height="360" viewBox="0 0 600 360" fill="none">
  <rect width="600" height="360" rx="16" fill="#F6F7F9"/>
  <rect x="24" y="24" width="552" height="312" rx="14" fill="#FFFFFF" stroke="#E2E6ED" stroke-width="2"/>
  <rect x="44" y="44" width="320" height="272" rx="12" fill="#F9FAFB" stroke="#E2E6ED" stroke-width="2"/>
  <rect x="64" y="64" width="280" height="18" rx="8" fill="#DFE8F5"/>
  <rect x="64" y="92" width="280" height="18" rx="8" fill="#DFE8F5"/>
  <rect x="64" y="122" width="220" height="14" rx="7" fill="#E8EDF5"/>
  <rect x="64" y="146" width="220" height="14" rx="7" fill="#E8EDF5"/>
  <rect x="64" y="170" width="200" height="14" rx="7" fill="#E8EDF5"/>
  <rect x="64" y="200" width="280" height="44" rx="10" fill="#D3E4FF"/>
  <rect x="64" y="260" width="220" height="18" rx="8" fill="#E8EDF5"/>
  <rect x="384" y="44" width="172" height="120" rx="12" fill="#F4F6FA" stroke="#E2E6ED" stroke-width="2"/>
  <rect x="402" y="64" width="136" height="12" rx="6" fill="#DFE8F5"/>
  <rect x="402" y="88" width="136" height="12" rx="6" fill="#DFE8F5"/>
  <rect x="402" y="112" width="136" height="12" rx="6" fill="#DFE8F5"/>
  <rect x="384" y="180" width="172" height="64" rx="12" fill="#EDF3FF" stroke="#E2E6ED" stroke-width="2"/>
  <rect x="402" y="198" width="136" height="12" rx="6" fill="#D3E4FF"/>
  <rect x="402" y="222" width="136" height="12" rx="6" fill="#DFE8F5"/>
  <rect x="384" y="260" width="172" height="56" rx="12" fill="#F9FAFB" stroke="#E2E6ED" stroke-width="2"/>
  <rect x="402" y="280" width="136" height="16" rx="8" fill="#E8EDF5"/>
</svg>
