<svg xmlns="http://www.w3.org/2000/svg" width="600" height="360" viewBox="0 0 600 360" fill="none">
  <rect width="600" height="360" rx="16" fill="#F6F5F2"/>
  <rect x="24" y="24" width="552" height="72" rx="12" fill="#FFFFFF" stroke="#E5DFD5" stroke-width="2"/>
  <rect x="44" y="44" width="160" height="32" rx="10" fill="#EFE8DB"/>
  <rect x="224" y="44" width="96" height="24" rx="8" fill="#E6F0FF"/>
  <rect x="332" y="44" width="96" height="24" rx="8" fill="#E6F0FF"/>
  <rect x="440" y="44" width="96" height="24" rx="8" fill="#E6F0FF"/>
  <rect x="24" y="108" width="552" height="228" rx="12" fill="#FFFFFF" stroke="#E5DFD5" stroke-width="2"/>
  <rect x="44" y="128" width="160" height="200" rx="12" fill="url(#lookbook)"/>
  <rect x="220" y="128" width="160" height="92" rx="12" fill="#EFE8DB"/>
  <rect x="220" y="232" width="160" height="92" rx="12" fill="#EFE8DB"/>
  <rect x="396" y="128" width="160" height="92" rx="12" fill="#EFE8DB"/>
  <rect x="396" y="232" width="160" height="92" rx="12" fill="#EFE8DB"/>
  <defs>
    <linearGradient id="lookbook" x1="44" y1="128" x2="204" y2="328" gradientUnits="userSpaceOnUse">
      <stop stop-color="#DCD4C8"/>
      <stop offset="1" stop-color="#E6F0FF"/>
    </linearGradient>
  </defs>
</svg>
