<svg width="96" height="64" viewBox="0 0 96 64" fill="none" xmlns="http://www.w3.org/2000/svg">
  <path d="M16 32C16 20.9543 24.9543 12 36 12C47.0457 12 56 20.9543 56 32C56 43.0457 47.0457 52 36 52C26.2081 52 18.0206 44.661 16.1693 35.2021" stroke="#111827" stroke-width="4" stroke-linecap="round" stroke-linejoin="round"/>
  <path d="M58 32C58 20.9543 66.9543 12 78 12C89.0457 12 98 20.9543 98 32C98 43.0457 89.0457 52 78 52C68.2081 52 60.0206 44.661 58.1693 35.2021" stroke="#111827" stroke-width="4" stroke-linecap="round" stroke-linejoin="round"/>
  <circle cx="36" cy="32" r="10" stroke="#111827" stroke-width="4"/>
  <circle cx="78" cy="32" r="10" stroke="#111827" stroke-width="4"/>
</svg>
